<svg version="1.1" id="Layer_1" xmlns="http://www.w3.org/2000/svg" xmlns:xlink="http://www.w3.org/1999/xlink" x="0px" y="0px"
	 width="100%" viewBox="0 0 1110 678" enable-background="new 0 0 1110 678" xml:space="preserve">
<path fill="#FFFFFF" opacity="1.000000" stroke="none" 
	d="
M807.000000,679.000000 
	C538.000000,679.000000 269.500031,679.000000 1.000036,679.000000 
	C1.000024,453.000031 1.000024,227.000061 1.000012,1.000067 
	C370.999969,1.000044 740.999939,1.000044 1111.000000,1.000022 
	C1111.000000,226.999939 1111.000000,452.999878 1111.000000,678.999878 
	C1009.833313,679.000000 908.666687,679.000000 807.000000,679.000000 
M928.127930,617.068481 
	C740.392517,617.062317 552.657166,617.056030 364.921753,617.050110 
	C361.590149,617.049988 358.246582,616.894043 354.933838,617.144531 
	C353.848114,617.226562 352.842438,618.367188 351.956757,619.742126 
	C361.367126,635.998047 360.185638,651.518250 347.427246,666.819885 
	C350.495514,666.819885 352.276398,666.819885 354.057281,666.819885 
	C539.890137,666.819824 725.723083,666.765869 911.555847,666.890747 
	C933.794922,666.905701 955.541443,664.726929 976.545288,656.998535 
	C993.590576,650.726746 1009.506714,642.276550 1023.368958,630.616699 
	C1044.586426,612.770142 1061.404785,591.627502 1071.648193,565.334717 
	C1076.867676,551.937317 1081.213989,538.372498 1082.444824,524.260620 
	C1083.808960,508.617035 1084.151611,492.839966 1081.150635,477.096375 
	C1078.630371,463.875671 1075.348511,450.948059 1069.283325,439.034790 
	C1063.683350,428.035522 1057.494507,417.189880 1050.311157,407.176025 
	C1038.605835,390.858215 1023.810547,377.401581 1006.428589,367.316528 
	C996.047913,361.293610 985.013000,356.185486 973.810913,351.861084 
	C965.448608,348.632935 956.450073,346.601349 947.550110,345.332581 
	C936.607727,343.772583 936.524658,344.354889 934.713379,333.627472 
	C934.685608,333.463165 934.673523,333.295532 934.636414,333.133545 
	C930.609253,315.576691 925.654175,298.323822 917.894653,281.988190 
	C909.821167,264.991425 899.872864,249.233124 887.937622,234.627792 
	C869.964600,212.633804 848.619019,194.761719 823.855835,181.011566 
	C809.868713,173.244995 795.103577,167.381516 779.757874,162.546249 
	C763.011841,157.269714 745.889404,154.730621 728.658630,153.528275 
	C706.241394,151.963989 684.035522,154.977280 662.288086,160.842468 
	C658.747375,161.797379 656.569519,160.915665 654.816223,157.258163 
	C646.250977,139.390442 635.378479,122.858315 622.119568,108.247917 
	C611.328186,96.356644 599.576782,85.154961 587.186462,74.938713 
	C568.241089,59.317612 546.722168,47.911892 523.886963,38.644417 
	C505.688171,31.258612 486.911835,26.205374 467.695312,23.774834 
	C449.853119,21.518116 431.877625,20.139963 413.554626,22.489569 
	C397.765228,24.514280 382.227570,26.931408 366.872681,31.004438 
	C350.849945,35.254631 335.652252,41.489601 320.965881,49.093987 
	C299.825867,60.039967 280.329163,73.333191 263.445892,90.168655 
	C255.459869,98.132072 247.769608,106.452873 240.584793,115.140594 
	C234.378647,122.644913 228.555954,130.579269 223.484497,138.885681 
	C212.798996,156.387299 203.676834,174.738876 197.984329,194.522400 
	C194.563599,206.410721 191.377823,218.449646 189.352280,230.631363 
	C187.590256,241.228256 187.849945,252.146667 186.708527,262.868958 
	C186.283615,266.860565 187.895416,267.072205 190.833328,266.779755 
	C197.597931,266.106445 204.355591,265.223846 211.138412,264.912048 
	C218.123199,264.590942 225.136383,264.752533 232.133331,264.892792 
	C235.146164,264.953156 236.510605,264.212250 236.844116,260.805237 
	C237.874359,250.280121 238.785156,239.683640 240.850159,229.335953 
	C242.995956,218.583481 245.534836,207.737381 249.514114,197.562790 
	C255.648743,181.877182 263.507233,166.845001 273.665436,153.336960 
	C290.905762,130.411285 311.653015,111.181374 336.769562,97.045517 
	C353.937225,87.383392 372.011475,79.813995 391.547943,76.509193 
	C404.597168,74.301781 417.731628,71.735367 430.894623,71.286903 
	C446.557495,70.753265 462.307678,72.449272 477.524567,76.750862 
	C489.498627,80.135735 501.741333,83.094666 513.108276,87.996758 
	C538.943542,99.138428 561.270996,115.453445 580.339172,136.331741 
	C591.730652,148.804657 601.800171,162.208252 609.069092,177.316635 
	C615.976074,191.672684 621.352051,206.775620 627.139465,221.651962 
	C628.418335,224.939224 629.584778,226.250412 633.194397,224.777054 
	C643.873657,220.418045 654.589844,216.132523 665.410400,212.140320 
	C682.192261,205.948730 699.781921,203.905548 717.491455,203.141434 
	C723.561584,202.879517 729.687439,204.444489 735.807434,204.694778 
	C749.718933,205.263687 763.131531,208.754807 775.833252,213.702728 
	C788.344177,218.576309 800.402771,225.099167 811.781067,232.289062 
	C834.737305,246.794952 852.512024,266.471375 865.945923,290.126740 
	C874.899292,305.892487 881.688416,322.535065 884.752686,340.328857 
	C886.886475,352.719788 887.066956,365.447601 888.108704,378.025848 
	C888.568359,383.576141 888.999939,389.128815 889.499512,395.370483 
	C897.678528,394.542297 905.240417,393.517883 912.836243,393.066620 
	C925.008606,392.343445 936.976746,393.676727 948.882812,396.588745 
	C963.905090,400.262970 977.351379,406.866791 989.698853,416.037598 
	C1000.234558,423.862823 1008.749084,433.525818 1015.885315,444.421875 
	C1022.810364,454.995514 1028.400513,466.506531 1030.629517,478.792511 
	C1032.826294,490.901093 1033.451538,503.552643 1032.742432,515.849243 
	C1032.173096,525.721863 1029.712524,535.863953 1026.097656,545.106812 
	C1017.515198,567.051331 1003.543030,585.078979 983.515808,598.112671 
	C969.318665,607.352173 954.036194,613.398132 937.150574,615.323242 
	C934.422546,615.634277 931.762634,616.543213 928.127930,617.068481 
M267.927368,363.611786 
	C244.945068,349.566528 220.650864,350.822662 196.208618,358.229340 
	C175.028839,364.647430 157.510895,377.286407 142.974213,393.710388 
	C109.456078,431.580048 91.978226,475.137451 99.239838,526.324646 
	C102.481857,549.177612 114.086227,567.960999 133.519836,580.849731 
	C158.630951,597.503906 185.428574,596.054260 212.234970,585.627197 
	C220.755554,582.312866 228.453918,576.884827 237.001938,572.162476 
	C237.622421,572.939148 238.441727,574.446594 239.677902,575.430115 
	C245.472946,580.040466 250.830917,585.651978 257.360565,588.797974 
	C273.448029,596.548950 289.910797,593.165100 305.926300,587.731934 
	C320.396545,582.823059 333.098755,574.644165 344.797943,564.926636 
	C374.862549,539.954407 394.604034,508.438202 402.472076,470.172729 
	C408.437500,441.160217 405.460846,412.415009 394.084290,385.051483 
	C380.940002,353.436218 359.293427,328.588043 330.261841,310.472809 
	C306.294128,295.517334 280.161865,286.489044 252.048721,282.832031 
	C221.966461,278.918915 192.384583,280.252716 163.208984,288.879730 
	C135.245087,297.148499 110.011337,310.632599 88.138176,329.795258 
	C57.214901,356.886505 35.628349,389.979492 26.484737,430.538177 
	C22.443073,448.465973 20.493027,466.485016 22.143036,484.951324 
	C23.826265,503.789429 27.488457,522.109131 34.287701,539.704895 
	C42.933556,562.079468 55.564598,582.094604 71.601891,599.935486 
	C86.694580,616.725525 104.907303,629.309631 124.727829,639.900085 
	C149.857330,653.327393 176.631516,660.097656 204.990768,660.649048 
	C222.650970,660.992432 240.322372,660.714294 257.987274,660.876587 
	C271.806335,661.003540 285.630707,661.772766 299.438324,661.507080 
	C308.850647,661.325989 318.321594,660.354736 327.612427,658.810791 
	C336.290680,657.368652 343.223724,647.859497 342.454956,640.025635 
	C341.218872,627.430054 330.259460,617.408203 317.581055,617.287598 
	C279.760620,616.927795 241.935562,616.807312 204.122589,616.067688 
	C192.866287,615.847595 180.974579,615.841003 170.567169,612.264526 
	C155.969330,607.247925 141.840347,600.027161 128.682251,591.861511 
	C109.877419,580.191528 96.145416,563.226501 84.809441,544.236938 
	C71.645058,522.184448 65.837303,498.214325 66.096397,472.840637 
	C66.351372,447.870972 72.751122,424.369385 85.141090,402.510284 
	C96.379150,382.683502 110.739967,365.603699 129.143570,352.207428 
	C161.467484,328.678436 197.505142,318.554291 237.544754,322.557465 
	C265.670074,325.369507 290.987732,335.079590 313.844971,351.446777 
	C318.005310,354.425781 321.682831,358.079010 325.583252,361.420959 
	C325.316223,361.921997 325.049194,362.423004 324.782166,362.924042 
	C316.347107,362.924042 307.912079,362.927399 299.477020,362.923157 
	C289.690033,362.918243 289.694275,362.916931 286.371368,371.844543 
	C285.755493,373.499298 285.089783,375.135529 284.506653,376.627777 
	C279.056824,372.356750 273.773773,368.216431 267.927368,363.611786 
z"/>
<path fill="#59A5DB" opacity="1.000000" stroke="none" 
	d="
M929.071167,617.175781 
	C931.762634,616.543213 934.422546,615.634277 937.150574,615.323242 
	C954.036194,613.398132 969.318665,607.352173 983.515808,598.112671 
	C1003.543030,585.078979 1017.515198,567.051331 1026.097656,545.106812 
	C1029.712524,535.863953 1032.173096,525.721863 1032.742432,515.849243 
	C1033.451538,503.552643 1032.826294,490.901093 1030.629517,478.792511 
	C1028.400513,466.506531 1022.810364,454.995514 1015.885315,444.421875 
	C1008.749084,433.525818 1000.234558,423.862823 989.698853,416.037598 
	C977.351379,406.866791 963.905090,400.262970 948.882812,396.588745 
	C936.976746,393.676727 925.008606,392.343445 912.836243,393.066620 
	C905.240417,393.517883 897.678528,394.542297 889.499512,395.370483 
	C888.999939,389.128815 888.568359,383.576141 888.108704,378.025848 
	C887.066956,365.447601 886.886475,352.719788 884.752686,340.328857 
	C881.688416,322.535065 874.899292,305.892487 865.945923,290.126740 
	C852.512024,266.471375 834.737305,246.794952 811.781067,232.289062 
	C800.402771,225.099167 788.344177,218.576309 775.833252,213.702728 
	C763.131531,208.754807 749.718933,205.263687 735.807434,204.694778 
	C729.687439,204.444489 723.561584,202.879517 717.491455,203.141434 
	C699.781921,203.905548 682.192261,205.948730 665.410400,212.140320 
	C654.589844,216.132523 643.873657,220.418045 633.194397,224.777054 
	C629.584778,226.250412 628.418335,224.939224 627.139465,221.651962 
	C621.352051,206.775620 615.976074,191.672684 609.069092,177.316635 
	C601.800171,162.208252 591.730652,148.804657 580.339172,136.331741 
	C561.270996,115.453445 538.943542,99.138428 513.108276,87.996758 
	C501.741333,83.094666 489.498627,80.135735 477.524567,76.750862 
	C462.307678,72.449272 446.557495,70.753265 430.894623,71.286903 
	C417.731628,71.735367 404.597168,74.301781 391.547943,76.509193 
	C372.011475,79.813995 353.937225,87.383392 336.769562,97.045517 
	C311.653015,111.181374 290.905762,130.411285 273.665436,153.336960 
	C263.507233,166.845001 255.648743,181.877182 249.514114,197.562790 
	C245.534836,207.737381 242.995956,218.583481 240.850159,229.335953 
	C238.785156,239.683640 237.874359,250.280121 236.844116,260.805237 
	C236.510605,264.212250 235.146164,264.953156 232.133331,264.892792 
	C225.136383,264.752533 218.123199,264.590942 211.138412,264.912048 
	C204.355591,265.223846 197.597931,266.106445 190.833328,266.779755 
	C187.895416,267.072205 186.283615,266.860565 186.708527,262.868958 
	C187.849945,252.146667 187.590256,241.228256 189.352280,230.631363 
	C191.377823,218.449646 194.563599,206.410721 197.984329,194.522400 
	C203.676834,174.738876 212.798996,156.387299 223.484497,138.885681 
	C228.555954,130.579269 234.378647,122.644913 240.584793,115.140594 
	C247.769608,106.452873 255.459869,98.132072 263.445892,90.168655 
	C280.329163,73.333191 299.825867,60.039967 320.965881,49.093987 
	C335.652252,41.489601 350.849945,35.254631 366.872681,31.004438 
	C382.227570,26.931408 397.765228,24.514280 413.554626,22.489569 
	C431.877625,20.139963 449.853119,21.518116 467.695312,23.774834 
	C486.911835,26.205374 505.688171,31.258612 523.886963,38.644417 
	C546.722168,47.911892 568.241089,59.317612 587.186462,74.938713 
	C599.576782,85.154961 611.328186,96.356644 622.119568,108.247917 
	C635.378479,122.858315 646.250977,139.390442 654.816223,157.258163 
	C656.569519,160.915665 658.747375,161.797379 662.288086,160.842468 
	C684.035522,154.977280 706.241394,151.963989 728.658630,153.528275 
	C745.889404,154.730621 763.011841,157.269714 779.757874,162.546249 
	C795.103577,167.381516 809.868713,173.244995 823.855835,181.011566 
	C848.619019,194.761719 869.964600,212.633804 887.937622,234.627792 
	C899.872864,249.233124 909.821167,264.991425 917.894653,281.988190 
	C925.654175,298.323822 930.609253,315.576691 934.636414,333.133545 
	C934.673523,333.295532 934.685608,333.463165 934.713379,333.627472 
	C936.524658,344.354889 936.607727,343.772583 947.550110,345.332581 
	C956.450073,346.601349 965.448608,348.632935 973.810913,351.861084 
	C985.013000,356.185486 996.047913,361.293610 1006.428589,367.316528 
	C1023.810547,377.401581 1038.605835,390.858215 1050.311157,407.176025 
	C1057.494507,417.189880 1063.683350,428.035522 1069.283325,439.034790 
	C1075.348511,450.948059 1078.630371,463.875671 1081.150635,477.096375 
	C1084.151611,492.839966 1083.808960,508.617035 1082.444824,524.260620 
	C1081.213989,538.372498 1076.867676,551.937317 1071.648193,565.334717 
	C1061.404785,591.627502 1044.586426,612.770142 1023.368958,630.616699 
	C1009.506714,642.276550 993.590576,650.726746 976.545288,656.998535 
	C955.541443,664.726929 933.794922,666.905701 911.555847,666.890747 
	C725.723083,666.765869 539.890137,666.819824 354.057281,666.819885 
	C352.276398,666.819885 350.495514,666.819885 347.427246,666.819885 
	C360.185638,651.518250 361.367126,635.998047 352.314056,619.417114 
	C355.126373,619.394714 357.581360,619.961853 360.036438,619.962341 
	C548.019897,620.003479 736.003296,620.000122 923.986755,619.998901 
	C925.319763,619.998901 926.767334,620.287231 927.939392,619.848450 
	C928.562866,619.614929 928.709351,618.107910 929.071167,617.175781 
z"/>
<path fill="#FAB13E" opacity="1.000000" stroke="none" 
	d="
M268.209045,363.843933 
	C273.773773,368.216431 279.056824,372.356750 284.506653,376.627777 
	C285.089783,375.135529 285.755493,373.499298 286.371368,371.844543 
	C289.694275,362.916931 289.690033,362.918243 299.477020,362.923157 
	C307.912079,362.927399 316.347107,362.924042 324.782166,362.924042 
	C325.049194,362.423004 325.316223,361.921997 325.583252,361.420959 
	C321.682831,358.079010 318.005310,354.425781 313.844971,351.446777 
	C290.987732,335.079590 265.670074,325.369507 237.544754,322.557465 
	C197.505142,318.554291 161.467484,328.678436 129.143570,352.207428 
	C110.739967,365.603699 96.379150,382.683502 85.141090,402.510284 
	C72.751122,424.369385 66.351372,447.870972 66.096397,472.840637 
	C65.837303,498.214325 71.645058,522.184448 84.809441,544.236938 
	C96.145416,563.226501 109.877419,580.191528 128.682251,591.861511 
	C141.840347,600.027161 155.969330,607.247925 170.567169,612.264526 
	C180.974579,615.841003 192.866287,615.847595 204.122589,616.067688 
	C241.935562,616.807312 279.760620,616.927795 317.581055,617.287598 
	C330.259460,617.408203 341.218872,627.430054 342.454956,640.025635 
	C343.223724,647.859497 336.290680,657.368652 327.612427,658.810791 
	C318.321594,660.354736 308.850647,661.325989 299.438324,661.507080 
	C285.630707,661.772766 271.806335,661.003540 257.987274,660.876587 
	C240.322372,660.714294 222.650970,660.992432 204.990768,660.649048 
	C176.631516,660.097656 149.857330,653.327393 124.727829,639.900085 
	C104.907303,629.309631 86.694580,616.725525 71.601891,599.935486 
	C55.564598,582.094604 42.933556,562.079468 34.287701,539.704895 
	C27.488457,522.109131 23.826265,503.789429 22.143036,484.951324 
	C20.493027,466.485016 22.443073,448.465973 26.484737,430.538177 
	C35.628349,389.979492 57.214901,356.886505 88.138176,329.795258 
	C110.011337,310.632599 135.245087,297.148499 163.208984,288.879730 
	C192.384583,280.252716 221.966461,278.918915 252.048721,282.832031 
	C280.161865,286.489044 306.294128,295.517334 330.261841,310.472809 
	C359.293427,328.588043 380.940002,353.436218 394.084290,385.051483 
	C405.460846,412.415009 408.437500,441.160217 402.472076,470.172729 
	C394.604034,508.438202 374.862549,539.954407 344.797943,564.926636 
	C333.098755,574.644165 320.396545,582.823059 305.926300,587.731934 
	C289.910797,593.165100 273.448029,596.548950 257.360565,588.797974 
	C250.830917,585.651978 245.472946,580.040466 239.677902,575.430115 
	C238.441727,574.446594 237.622421,572.939148 237.001938,572.162476 
	C228.453918,576.884827 220.755554,582.312866 212.234970,585.627197 
	C185.428574,596.054260 158.630951,597.503906 133.519836,580.849731 
	C114.086227,567.960999 102.481857,549.177612 99.239838,526.324646 
	C91.978226,475.137451 109.456078,431.580048 142.974213,393.710388 
	C157.510895,377.286407 175.028839,364.647430 196.208618,358.229340 
	C220.650864,350.822662 244.945068,349.566528 268.209045,363.843933 
M256.504913,413.261780 
	C255.583176,411.506226 254.751831,409.695831 253.725647,408.003601 
	C244.131134,392.181519 228.275375,392.019012 211.666702,395.823669 
	C198.978485,398.730225 188.965424,406.737610 179.993347,415.743774 
	C160.182953,435.629486 148.736862,460.012177 143.214081,487.250854 
	C140.483429,500.718567 140.124680,514.202026 144.858002,527.541199 
	C150.772125,544.208069 169.252045,554.874329 186.581207,551.486938 
	C198.559509,549.145447 207.674454,542.039001 216.330124,534.223938 
	C230.920349,521.050720 240.660172,504.472382 248.171371,486.585144 
	C257.960297,463.273682 264.365143,439.429565 256.504913,413.261780 
M350.403259,487.748352 
	C351.016785,486.031738 351.578888,484.294647 352.251495,482.601501 
	C365.020447,450.460022 364.361572,418.999512 347.098511,388.568634 
	C343.567688,382.344604 339.040527,376.685791 334.226227,369.680237 
	C325.430389,395.344482 317.220947,419.273529 309.028748,443.208527 
	C302.640686,461.872375 296.273712,480.543427 289.898071,499.211578 
	C285.073700,513.337463 280.191742,527.444153 275.460175,541.601074 
	C273.903259,546.259460 275.339264,548.584961 280.115875,549.541565 
	C281.880768,549.895020 283.774994,549.960510 285.566711,549.762756 
	C295.387787,548.678894 304.025726,544.684998 311.827118,538.750977 
	C329.231079,525.512817 340.925385,507.946075 350.403259,487.748352 
z"/>
<path fill="#4A9DD7" opacity="1.000000" stroke="none" 
	d="
M928.599548,617.122131 
	C928.709351,618.107910 928.562866,619.614929 927.939392,619.848450 
	C926.767334,620.287231 925.319763,619.998901 923.986755,619.998901 
	C736.003296,620.000122 548.019897,620.003479 360.036438,619.962341 
	C357.581360,619.961853 355.126373,619.394714 352.235779,619.057922 
	C352.842438,618.367188 353.848114,617.226562 354.933838,617.144531 
	C358.246582,616.894043 361.590149,617.049988 364.921753,617.050110 
	C552.657166,617.056030 740.392517,617.062317 928.599548,617.122131 
z"/>
<path fill="#FEFEFD" opacity="1.000000" stroke="none" 
	d="
M256.640320,413.629425 
	C264.365143,439.429565 257.960297,463.273682 248.171371,486.585144 
	C240.660172,504.472382 230.920349,521.050720 216.330124,534.223938 
	C207.674454,542.039001 198.559509,549.145447 186.581207,551.486938 
	C169.252045,554.874329 150.772125,544.208069 144.858002,527.541199 
	C140.124680,514.202026 140.483429,500.718567 143.214081,487.250854 
	C148.736862,460.012177 160.182953,435.629486 179.993347,415.743774 
	C188.965424,406.737610 198.978485,398.730225 211.666702,395.823669 
	C228.275375,392.019012 244.131134,392.181519 253.725647,408.003601 
	C254.751831,409.695831 255.583176,411.506226 256.640320,413.629425 
z"/>
<path fill="#FDFDFB" opacity="1.000000" stroke="none" 
	d="
M350.190704,488.064453 
	C340.925385,507.946075 329.231079,525.512817 311.827118,538.750977 
	C304.025726,544.684998 295.387787,548.678894 285.566711,549.762756 
	C283.774994,549.960510 281.880768,549.895020 280.115875,549.541565 
	C275.339264,548.584961 273.903259,546.259460 275.460175,541.601074 
	C280.191742,527.444153 285.073700,513.337463 289.898071,499.211578 
	C296.273712,480.543427 302.640686,461.872375 309.028748,443.208527 
	C317.220947,419.273529 325.430389,395.344482 334.226227,369.680237 
	C339.040527,376.685791 343.567688,382.344604 347.098511,388.568634 
	C364.361572,418.999512 365.020447,450.460022 352.251495,482.601501 
	C351.578888,484.294647 351.016785,486.031738 350.190704,488.064453 
z"/>
</svg>